<svg width="1000" height="183" viewBox="0 0 1000 183" fill="none" xmlns="http://www.w3.org/2000/svg">
<path d="M239.1 87.4354V86.5119C239.1 61.109 258.418 44.549 283.011 44.549C307.604 44.549 327.15 59.8313 327.15 85.8161V86.7396C327.15 112.37 309.565 129.5 282.543 129.5C255.521 129.5 239.087 112.37 239.087 87.4228L239.1 87.4354ZM300.026 87.3216V86.3981C300.026 72.4821 293.359 64.9042 283.011 64.9042C272.663 64.9042 266.337 72.3809 266.337 86.3981V87.3216C266.337 101.351 272.89 109.043 283.239 109.043C293.587 109.043 300.026 100.997 300.026 87.3216Z" fill="#F2EFE9"/>
<path d="M337.27 67.9024H357.385C358.081 67.9024 358.65 68.4716 358.65 69.1674V72.697C358.65 73.8609 360.105 74.4302 360.852 73.5446C364.381 69.3825 369.695 66.3083 377.045 66.3083C390.72 66.3083 402.22 76.5429 402.22 97.5813V98.5048C402.22 119.543 390.606 129.537 376.931 129.537C369.872 129.537 364.343 126.83 360.877 122.756C360.105 121.858 358.65 122.377 358.65 123.566V146.78C358.65 147.476 358.081 148.046 357.385 148.046H337.27C336.575 148.046 336.005 147.476 336.005 146.78V69.1927C336.005 68.4969 336.575 67.9277 337.27 67.9277V67.9024ZM379.233 98.2518V97.3283C379.233 87.6757 375.324 83.0707 368.543 83.0707C361.762 83.0707 358.081 88.1311 358.081 97.3283V98.2518C358.081 107.563 361.762 112.282 368.657 112.282C375.552 112.282 379.233 107.449 379.233 98.2518Z" fill="#F2EFE9"/>
<path d="M407.624 98.7081V97.7846C407.624 78.239 422.565 66.1701 440.959 66.1701C457.86 66.1701 472.219 75.8227 472.219 97.443V101.694C472.219 102.39 471.65 102.959 470.954 102.959H431.926C431.142 102.959 430.547 103.667 430.674 104.452C431.686 110.739 435.785 114.104 441.756 114.104C447.727 114.104 450.055 111.599 450.966 108.538C451.118 108.019 451.611 107.665 452.168 107.665H470.853C471.65 107.665 472.244 108.399 472.093 109.196C469.702 122.049 459.315 129.513 440.959 129.513C422.602 129.513 407.624 118.595 407.624 98.7081ZM449.03 91.1176C449.789 91.1176 450.371 90.4471 450.295 89.7007C449.675 84.109 446.601 80.7692 440.972 80.7692C435.886 80.7692 432.179 83.7928 430.901 89.5616C430.724 90.3586 431.332 91.1176 432.141 91.1176H449.03Z" fill="#F2EFE9"/>
<path d="M481.656 67.9056H501.771C502.466 67.9056 503.036 68.4749 503.036 69.1707V73.3455C503.036 74.5347 504.528 75.066 505.275 74.1298C508.944 69.5376 514.725 66.299 522.923 66.299C534.309 66.299 542.228 73.5352 542.228 88.4886V126.77C542.228 127.466 541.659 128.035 540.963 128.035H520.848C520.152 128.035 519.583 127.466 519.583 126.77V93.5489C519.583 87.4512 517.394 84.3517 511.992 84.3517C506.591 84.3517 503.023 87.6916 503.023 94.814V126.77C503.023 127.466 502.454 128.035 501.758 128.035H481.643C480.947 128.035 480.378 127.466 480.378 126.77V69.1833C480.378 68.4875 480.947 67.9183 481.643 67.9183L481.656 67.9056Z" fill="#F2EFE9"/>
<path d="M572.767 101.695H595.033C595.652 101.695 596.184 102.138 596.272 102.758C596.981 107.439 599.726 111.12 607.645 111.12C613.743 111.12 616.729 108.362 616.729 104.339C616.729 99.9747 613.857 98.5958 605.001 97.3307C581.319 94.6867 573.273 87.7919 573.273 70.8904C573.273 55.722 585.684 44.6778 606.153 44.6778C626.622 44.6778 637.274 52.5213 639.133 69.4988C639.209 70.2452 638.615 70.8904 637.868 70.8904H616.21C615.615 70.8904 615.084 70.4729 614.97 69.891C614.148 65.4505 611.302 62.9583 606.153 62.9583C600.751 62.9583 597.993 65.3746 597.993 68.9422C597.993 72.8513 600.409 74.6856 609.492 75.8369C630.189 78.0255 641.676 83.3135 641.676 101.581C641.676 116.864 629.721 129.514 607.645 129.514C585.57 129.514 572.615 120.646 571.502 103.036C571.451 102.315 572.046 101.695 572.767 101.695Z" fill="#F2EFE9"/>
<path d="M652.947 107.908V84.3395C652.947 83.6437 652.378 83.0744 651.682 83.0744H647.203C646.508 83.0744 645.938 82.5051 645.938 81.8093V69.1585C645.938 68.4627 646.508 67.8934 647.203 67.8934H651.682C652.378 67.8934 652.947 67.3241 652.947 66.6283V56.8618C652.947 56.166 653.516 55.5967 654.212 55.5967H674.327C675.023 55.5967 675.592 56.166 675.592 56.8618V66.6283C675.592 67.3241 676.161 67.8934 676.857 67.8934H685.827C686.522 67.8934 687.092 68.4627 687.092 69.1585V81.8093C687.092 82.5051 686.522 83.0744 685.827 83.0744H676.857C676.161 83.0744 675.592 83.6437 675.592 84.3395V105.719C675.592 109.856 677.781 111.577 681.449 111.577C682.929 111.577 684.182 111.463 685.485 111.134C686.295 110.932 687.079 111.526 687.079 112.349V126.695C687.079 127.277 686.687 127.77 686.13 127.922C683.385 128.655 679.526 129.377 675.124 129.377C660.98 129.377 652.934 122.937 652.934 107.883L652.947 107.908Z" fill="#F2EFE9"/>
<path d="M692.835 111.343C692.835 97.1996 704.335 91.6839 725.133 91.6839H730.307V90.6465C730.307 85.5861 729.384 81.9047 723.299 81.9047C718.681 81.9047 716.91 84.5614 716.328 87.332C716.202 87.9139 715.696 88.344 715.101 88.344H696.403C695.657 88.344 695.062 87.6988 695.138 86.9651C696.669 73.163 707.979 66.1544 724.678 66.1544C741.377 66.1544 752.725 73.2769 752.725 89.141V126.727C752.725 127.423 752.155 127.992 751.46 127.992H732.154C731.458 127.992 730.889 127.423 730.889 126.727V124.753C730.889 123.615 729.51 123.058 728.726 123.88C725.74 126.942 720.857 129.485 713.305 129.485C702.501 129.485 692.848 124.197 692.848 111.318L692.835 111.343ZM730.307 106.979V105.144C730.307 104.449 729.738 103.879 729.042 103.879H725.475C717.884 103.879 715.126 105.372 715.126 109.623C715.126 112.495 717.315 114.342 721.452 114.342C726.626 114.342 730.307 111.47 730.307 106.979Z" fill="#F2EFE9"/>
<path d="M764.795 67.904H784.91C785.606 67.904 786.175 68.4733 786.175 69.1691V74.8999C786.175 76.165 787.807 76.6331 788.503 75.5704C792.185 69.8902 797.473 67.3094 804.203 67.107C804.911 67.0817 805.481 67.6763 805.481 68.3721V86.9309C805.481 87.652 804.873 88.2086 804.165 88.196C792.476 87.867 786.175 92.0039 786.175 100.315V126.756C786.175 127.452 785.606 128.021 784.91 128.021H764.795C764.1 128.021 763.53 127.452 763.53 126.756V69.1691C763.53 68.4733 764.1 67.904 764.795 67.904Z" fill="#F2EFE9"/>
<path d="M818.243 107.908V84.3395C818.243 83.6437 817.674 83.0744 816.978 83.0744H812.5C811.804 83.0744 811.235 82.5051 811.235 81.8093V69.1585C811.235 68.4627 811.804 67.8934 812.5 67.8934H816.978C817.674 67.8934 818.243 67.3241 818.243 66.6283V56.8618C818.243 56.166 818.813 55.5967 819.508 55.5967H839.623C840.319 55.5967 840.888 56.166 840.888 56.8618V66.6283C840.888 67.3241 841.458 67.8934 842.154 67.8934H851.123C851.819 67.8934 852.388 68.4627 852.388 69.1585V81.8093C852.388 82.5051 851.819 83.0744 851.123 83.0744H842.154C841.458 83.0744 840.888 83.6437 840.888 84.3395V105.719C840.888 109.856 843.077 111.577 846.746 111.577C848.226 111.577 849.478 111.463 850.781 111.134C851.591 110.932 852.375 111.526 852.375 112.349V126.695C852.375 127.277 851.983 127.77 851.427 127.922C848.681 128.655 844.823 129.377 840.42 129.377C826.277 129.377 818.231 122.937 818.231 107.883L818.243 107.908Z" fill="#F2EFE9"/>
<path d="M860.789 107.324V69.1566C860.789 68.4608 861.359 67.8915 862.054 67.8915H882.169C882.865 67.8915 883.434 68.4608 883.434 69.1566V103.415C883.434 109.513 885.737 112.612 891.025 112.612C896.655 112.612 899.994 109.273 899.994 102.15V69.1566C899.994 68.4608 900.564 67.8915 901.259 67.8915H921.374C922.07 67.8915 922.639 68.4608 922.639 69.1566V126.743C922.639 127.439 922.07 128.008 921.374 128.008H901.259C900.564 128.008 899.994 127.439 899.994 126.743V123.024C899.994 121.822 898.476 121.303 897.743 122.252C894.276 126.693 889.039 129.514 880.917 129.514C869.417 129.514 860.802 122.278 860.802 107.324H860.789Z" fill="#F2EFE9"/>
<path d="M935.05 67.9024H955.165C955.861 67.9024 956.43 68.4716 956.43 69.1674V72.697C956.43 73.8609 957.885 74.4302 958.632 73.5446C962.161 69.3825 967.475 66.3083 974.825 66.3083C988.5 66.3083 1000 76.5429 1000 97.5813V98.5048C1000 119.543 988.386 129.537 974.711 129.537C967.652 129.537 962.123 126.83 958.657 122.756C957.885 121.858 956.43 122.377 956.43 123.566V146.78C956.43 147.476 955.861 148.046 955.165 148.046H935.05C934.355 148.046 933.785 147.476 933.785 146.78V69.1927C933.785 68.4969 934.355 67.9277 935.05 67.9277V67.9024ZM977.001 98.2518V97.3283C977.001 87.6757 973.092 83.0707 966.311 83.0707C959.53 83.0707 955.849 88.1311 955.849 97.3283V98.2518C955.849 107.563 959.53 112.282 966.425 112.282C973.319 112.282 977.001 107.449 977.001 98.2518Z" fill="#F2EFE9"/>
<path d="M118.477 24.9406C120.489 36.5035 111.886 45.182 98.4505 43.9422C84.0914 42.6139 70.5421 30.6968 69.1504 17.8308C67.7968 5.39505 78.5123 -2.10691 92.2261 0.524469C105.105 3.00404 116.529 13.7446 118.477 24.9406Z" fill="#F2EFE9"/>
<path d="M139.353 148.479C141.997 163.597 132.951 178.575 118.111 181.624C102.095 184.914 86.5341 173.072 84.6491 155.601C82.8273 138.814 94.6182 124.885 109.838 123.962C124.019 123.089 136.81 133.893 139.353 148.479Z" fill="#F2EFE9"/>
<path d="M163.881 73.9104C155.607 79.6539 141.956 75.6562 133.897 64.5867C125.826 53.4793 127.243 40.588 136.516 36.1096C145.195 31.9222 157.606 36.7548 164.728 46.6225C171.813 56.4649 171.623 68.5338 163.868 73.9104H163.881Z" fill="#F2EFE9"/>
<path d="M59.2695 144.9C43.4302 155.881 20.0256 153.161 8.34857 137.752C-3.37904 122.268 2.83267 102.064 20.6581 93.4616C36.9275 85.6181 57.0808 90.4634 66.8855 103.646C76.6521 116.765 73.7171 134.868 59.2695 144.9Z" fill="#F2EFE9"/>
<path d="M155.065 135.094C142.756 129.072 136.177 113.65 140.592 101.607C144.742 90.2843 156.988 86.7674 167.78 92.941C178.192 98.8995 184.251 112.208 181.519 123.392C178.622 135.245 166.894 140.875 155.065 135.094Z" fill="#F2EFE9"/>
<path d="M19.2675 68.1323C1.31555 59.3526 -5.301 41.3884 4.60485 29.2689C13.8022 18.0223 33.5127 16.7572 48.6056 25.3851C63.0532 33.6587 69.3155 48.8271 62.7369 60.2255C55.7029 72.4336 36.3466 76.4946 19.2549 68.1323H19.2675Z" fill="#F2EFE9"/>
</svg>
