<svg viewBox="0 0 1024 1024" xmlns="http://www.w3.org/2000/svg">
  <!-- Brand emblem only, no wordmark. Paths copied verbatim from the
       official asset library: "Open Startup Icon Navy Transparent.svg" in
       Brand Assets / Logo Suites / Logo Icon.
       Colour adapts to the browser/OS theme via prefers-color-scheme, so one
       file works as the tab favicon in both light and dark chrome. -->
  <style>
    path { fill: #1d2853; }
    @media (prefers-color-scheme: dark) {
      path { fill: #F2EFE9; }
    }
  </style>
  <path d="M665.953 140.192C677.26 205.188 628.904 253.97 553.384 247.001C472.673 239.535 396.513 172.548 388.691 100.228C381.082 30.3258 441.313 -11.843 518.398 2.94806C590.789 16.8858 655.002 77.2592 665.953 140.192Z"/>
  <path d="M783.294 834.591C798.156 919.569 747.312 1003.76 663.898 1020.9C573.872 1039.39 486.405 972.831 475.809 874.626C465.569 780.262 531.845 701.969 617.392 696.777C697.107 691.871 769.001 752.6 783.294 834.591Z"/>
  <path d="M921.171 415.452C874.664 447.737 797.935 425.266 752.638 363.043C707.269 300.608 715.233 228.146 767.358 202.972C816.14 179.434 885.9 206.599 925.935 262.065C965.758 317.39 964.691 385.23 921.1 415.452H921.171Z"/>
  <path d="M333.156 814.476C244.125 876.2 112.57 860.911 46.9342 774.298C-18.9858 687.258 15.9297 573.694 116.125 525.338C207.574 481.249 320.854 508.485 375.965 582.582C430.863 656.325 414.365 758.085 333.156 814.476Z"/>
  <path d="M871.613 759.355C802.422 725.506 765.444 638.822 790.262 571.124C813.586 507.48 882.422 487.711 943.079 522.413C1001.6 555.906 1035.67 630.715 1020.31 693.577C1004.02 760.209 938.102 791.853 871.613 759.355Z"/>
  <path d="M108.301 382.965C7.39462 333.614 -29.7965 232.636 25.8835 164.512C77.5813 101.294 188.372 94.1831 273.208 142.681C354.417 189.188 389.617 274.45 352.639 338.521C313.101 407.143 204.301 429.97 108.23 382.965H108.301Z"/>
</svg>
